<?xml version="1.0" encoding="utf-8"?>
<svg viewBox="422.916 179.413 20 19.5" xmlns="http://www.w3.org/2000/svg">
  <path d="M 441.916 179.413 C 442.468 179.413 442.916 179.861 442.916 180.413 L 442.916 194.413 C 442.916 194.965 442.468 195.413 441.916 195.413 L 427.371 195.413 L 422.916 198.913 L 422.916 180.413 C 422.916 179.861 423.364 179.413 423.916 179.413 L 441.916 179.413 Z M 440.916 181.413 L 424.916 181.413 L 424.916 194.798 L 426.679 193.413 L 440.916 193.413 L 440.916 181.413 Z M 437.916 183.413 L 437.916 191.413 L 435.916 191.413 L 435.916 183.413 L 437.916 183.413 Z M 431.916 184.413 L 431.916 186.412 L 433.916 186.413 L 433.916 188.413 L 431.916 188.412 L 431.916 190.413 L 429.916 190.413 L 429.916 188.412 L 427.916 188.413 L 427.916 186.413 L 429.916 186.412 L 429.916 184.413 L 431.916 184.413 Z" fill="#FFF"/>
</svg>